<?xml version="1.0" encoding="UTF-8" standalone="no"?>
<!DOCTYPE svg PUBLIC "-//W3C//DTD SVG 1.1//EN" "http://www.w3.org/Graphics/SVG/1.1/DTD/svg11.dtd">
<svg width="100%" height="100%" viewBox="0 0 88 56" version="1.1" xmlns="http://www.w3.org/2000/svg" xmlns:xlink="http://www.w3.org/1999/xlink" xml:space="preserve" xmlns:serif="http://www.serif.com/" style="fill-rule:evenodd;clip-rule:evenodd;stroke-linejoin:round;stroke-miterlimit:2;">
    <path d="M16.633,13.785C17.669,12.497 18.372,10.768 18.187,9C16.67,9.075 14.819,9.995 13.747,11.284C12.785,12.388 11.934,14.19 12.156,15.883C13.858,16.03 15.559,15.038 16.633,13.785Z" style="fill:white;fill-rule:nonzero;"/>
    <path d="M18.167,16.213C15.695,16.067 13.592,17.608 12.411,17.608C11.23,17.608 9.422,16.287 7.466,16.322C4.921,16.36 2.559,17.79 1.267,20.065C-1.39,24.617 0.566,31.369 3.15,35.076C4.404,36.911 5.916,38.93 7.909,38.857C9.791,38.784 10.529,37.646 12.817,37.646C15.104,37.646 15.769,38.857 17.761,38.821C19.828,38.784 21.12,36.986 22.374,35.15C23.814,33.059 24.403,31.04 24.44,30.93C24.403,30.893 20.455,29.387 20.419,24.873C20.381,21.094 23.518,19.296 23.666,19.185C21.894,16.58 19.127,16.287 18.167,16.213Z" style="fill:white;fill-rule:nonzero;"/>
    <path d="M39.691,11.101C45.065,11.101 48.807,14.783 48.807,20.144C48.807,25.524 44.988,29.226 39.556,29.226L33.606,29.226L33.606,38.632L29.307,38.632L29.307,11.101L39.691,11.101ZM33.606,25.639L38.539,25.639C42.282,25.639 44.412,23.636 44.412,20.163C44.412,16.691 42.282,14.707 38.558,14.707L33.606,14.707L33.606,25.639Z" style="fill:white;fill-rule:nonzero;"/>
    <path d="M49.928,32.926C49.928,29.415 52.634,27.259 57.433,26.992L62.96,26.668L62.96,25.122C62.96,22.89 61.444,21.554 58.911,21.554C56.511,21.554 55.014,22.699 54.65,24.493L50.734,24.493C50.964,20.867 54.074,18.196 59.064,18.196C63.958,18.196 67.087,20.772 67.087,24.798L67.087,38.63L63.114,38.63L63.114,35.329L63.018,35.329C61.847,37.562 59.294,38.973 56.646,38.973C52.692,38.973 49.928,36.531 49.928,32.926ZM62.96,31.113L62.96,29.529L57.989,29.835C55.513,30.006 54.112,31.094 54.112,32.811C54.112,34.566 55.571,35.711 57.797,35.711C60.695,35.711 62.96,33.727 62.96,31.113Z" style="fill:white;fill-rule:nonzero;"/>
    <path d="M70.838,46.017L70.838,42.678C71.145,42.754 71.835,42.754 72.181,42.754C74.1,42.754 75.137,41.953 75.77,39.892C75.77,39.854 76.135,38.671 76.135,38.652L68.842,18.562L73.333,18.562L78.439,34.894L78.515,34.894L83.621,18.562L87.997,18.562L80.434,39.682C78.708,44.548 76.711,46.112 72.527,46.112C72.181,46.112 71.145,46.074 70.838,46.017Z" style="fill:white;fill-rule:nonzero;"/>
</svg>
