<svg width="88" height="56" viewBox="0 0 88 56" fill="none" xmlns="http://www.w3.org/2000/svg">
<path d="M16.6328 13.7854C17.6689 12.4972 18.372 10.7675 18.1866 9C16.6699 9.07497 14.819 9.99466 13.7474 11.2839C12.7853 12.3879 11.9337 14.19 12.1557 15.8834C13.8583 16.0302 15.5593 15.0375 16.6328 13.7854Z" fill="black"/>
<path d="M18.1671 16.2129C15.6945 16.0665 13.5922 17.6079 12.4114 17.6079C11.23 17.6079 9.42178 16.2867 7.46609 16.3223C4.92064 16.3595 2.55875 17.7901 1.26704 20.0654C-1.38979 24.6173 0.565901 31.3692 3.14953 35.0764C4.40419 36.9105 5.91628 38.9299 7.90869 38.8574C9.79118 38.784 10.529 37.6457 12.8173 37.6457C15.1038 37.6457 15.7685 38.8574 17.7612 38.8207C19.8277 38.784 21.1197 36.9857 22.3743 35.1498C23.8137 33.0591 24.4029 31.0403 24.4399 30.9295C24.4029 30.8928 20.4551 29.3874 20.4185 24.8734C20.3813 21.0938 23.5179 19.296 23.6656 19.1845C21.8943 16.5803 19.1266 16.2867 18.1671 16.2129Z" fill="black"/>
<path d="M39.6906 11.1006C45.0648 11.1006 48.807 14.7829 48.807 20.144C48.807 25.5243 44.9878 29.2258 39.5559 29.2258H33.6057V38.6317H29.3066V11.1006H39.6906V11.1006ZM33.6057 25.6388H38.5385C42.2815 25.6388 44.4117 23.6357 44.4117 20.1632C44.4117 16.691 42.2815 14.7067 38.5578 14.7067H33.6057V25.6388V25.6388Z" fill="black"/>
<path d="M49.9277 32.9255C49.9277 29.4147 52.6341 27.2589 57.4329 26.9917L62.9603 26.6675V25.1222C62.9603 22.8899 61.4439 21.5544 58.9108 21.5544C56.511 21.5544 55.0139 22.6989 54.6496 24.4926H50.7341C50.9644 20.8673 54.0735 18.1963 59.0641 18.1963C63.9584 18.1963 67.0868 20.772 67.0868 24.7976V38.63H63.1136V35.3293H63.0181C61.8474 37.5617 59.2944 38.9733 56.6458 38.9733C52.6918 38.9733 49.9277 36.5312 49.9277 32.9255ZM62.9603 31.113V29.5295L57.989 29.8346C55.5129 30.0064 54.112 31.0939 54.112 32.811C54.112 34.5661 55.5707 35.7109 57.7972 35.7109C60.6953 35.7109 62.9603 33.7266 62.9603 31.113Z" fill="black"/>
<path d="M70.838 46.0167V42.6778C71.1446 42.7539 71.8354 42.7539 72.1812 42.7539C74.1004 42.7539 75.1371 41.9528 75.7701 39.8923C75.7701 39.854 76.1352 38.6713 76.1352 38.6521L68.8418 18.5618H73.3326L78.4387 34.8936H78.515L83.6211 18.5618H87.9971L80.4342 39.6822C78.7075 44.5476 76.7112 46.112 72.527 46.112C72.1812 46.112 71.1446 46.0737 70.838 46.0167Z" fill="black"/>
</svg>
