<svg width="91" height="43" viewBox="0 0 91 43" fill="none" xmlns="http://www.w3.org/2000/svg">
<g clip-path="url(#clip0_633_4144)">
<path d="M42.6593 22.2315V32.7275H39.2734V6.76953H48.0766C50.2209 6.76953 52.2524 7.55956 53.8325 9.02675C55.4125 10.3811 56.2026 12.4126 56.2026 14.5569C56.2026 16.7013 55.4125 18.6199 53.8325 20.0871C52.2524 21.5543 50.3338 22.3443 48.0766 22.3443L42.6593 22.2315ZM42.6593 9.92964V18.9585H48.3023C49.5438 18.9585 50.7852 18.5071 51.5753 17.6042C53.381 15.9113 53.381 13.0897 51.6881 11.3968L51.5753 11.284C50.6724 10.3811 49.5438 9.81678 48.3023 9.92964H42.6593Z" fill="black"/>
<path d="M63.9944 14.4453C66.4774 14.4453 68.396 15.1225 69.8632 16.4768C71.3304 17.8311 72.0076 19.6369 72.0076 21.8941V32.7288H68.8474V30.2458H68.7346C67.3803 32.2773 65.4616 33.2931 63.2044 33.2931C61.2858 33.2931 59.5929 32.7288 58.2385 31.6002C56.9971 30.4716 56.207 28.8915 56.207 27.1986C56.207 25.3928 56.8842 23.9256 58.2385 22.797C59.5929 21.6684 61.5115 21.217 63.7687 21.217C65.8002 21.217 67.3803 21.5555 68.6217 22.3456V21.5555C68.6217 20.4269 68.1703 19.2983 67.2674 18.6212C66.3645 17.8311 65.2359 17.3797 63.9944 17.3797C62.0758 17.3797 60.6086 18.1697 59.5929 19.7498L56.6585 17.944C58.4643 15.5739 60.8343 14.4453 63.9944 14.4453ZM59.7057 27.3115C59.7057 28.2143 60.1572 29.0044 60.8343 29.4558C61.6244 30.0201 62.5272 30.3587 63.4301 30.3587C64.7845 30.3587 66.1388 29.7944 67.1545 28.7786C68.2831 27.7629 68.8474 26.5214 68.8474 25.1671C67.8317 24.3771 66.3645 23.9256 64.4459 23.9256C63.0915 23.9256 61.9629 24.2642 61.06 24.9414C60.1572 25.5057 59.7057 26.2957 59.7057 27.3115Z" fill="black"/>
<path d="M90.2895 15.0117L79.1162 40.6311H75.7304L79.9063 31.7151L72.5703 15.1246H76.1819L81.4863 27.8779H81.5992L86.7908 15.1246H90.2895V15.0117Z" fill="black"/>
<path d="M29.2318 19.9769C29.2318 18.9612 29.1189 17.9454 29.006 16.9297H14.8984V22.6856H22.9116C22.573 24.4914 21.5572 26.1843 19.9772 27.2V30.9244H24.8302C27.6517 28.3286 29.2318 24.4914 29.2318 19.9769Z" fill="#4285F4"/>
<path d="M14.8996 34.5331C18.9626 34.5331 22.3484 33.1788 24.8314 30.9216L19.9784 27.1972C18.624 28.1001 16.9311 28.6644 14.8996 28.6644C11.0623 28.6644 7.67652 26.0686 6.54791 22.457H1.58203V26.2943C4.17783 31.373 9.25657 34.5331 14.8996 34.5331Z" fill="#34A853"/>
<path d="M6.5468 22.4565C5.86964 20.6507 5.86964 18.6192 6.5468 16.7006V12.8633H1.58092C-0.563433 17.0391 -0.563433 22.005 1.58092 26.2937L6.5468 22.4565Z" fill="#FBBC04"/>
<path d="M14.9 10.6092C17.0444 10.6092 19.0759 11.3992 20.6559 12.8664L24.9447 8.57772C22.236 6.09478 18.6244 4.62759 15.0129 4.74045C9.36985 4.74045 4.17825 7.90055 1.69531 12.9793L6.66119 16.8166C7.67694 13.205 11.0628 10.6092 14.9 10.6092Z" fill="#EA4335"/>
</g>
<defs>
<clipPath id="clip0_633_4144">
<rect width="90.2887" height="43" rx="8" fill="white"/>
</clipPath>
</defs>
</svg>
