<?xml version="1.0" encoding="UTF-8" standalone="no"?>
<!DOCTYPE svg PUBLIC "-//W3C//DTD SVG 1.1//EN" "http://www.w3.org/Graphics/SVG/1.1/DTD/svg11.dtd">
<svg width="100%" height="100%" viewBox="0 0 91 43" version="1.1" xmlns="http://www.w3.org/2000/svg" xmlns:xlink="http://www.w3.org/1999/xlink" xml:space="preserve" xmlns:serif="http://www.serif.com/" style="fill-rule:evenodd;clip-rule:evenodd;stroke-linejoin:round;stroke-miterlimit:2;">
    <g>
        <path d="M42.659,22.232L42.659,32.728L39.273,32.728L39.273,6.77L48.077,6.77C50.221,6.77 52.252,7.56 53.833,9.027C55.413,10.381 56.203,12.413 56.203,14.557C56.203,16.701 55.413,18.62 53.833,20.087C52.252,21.554 50.334,22.344 48.077,22.344L42.659,22.232ZM42.659,9.93L42.659,18.959L48.302,18.959C49.544,18.959 50.785,18.507 51.575,17.604C53.381,15.911 53.381,13.09 51.688,11.397L51.575,11.284C50.672,10.381 49.544,9.817 48.302,9.93L42.659,9.93Z" style="fill:white;fill-rule:nonzero;"/>
        <path d="M63.994,14.445C66.477,14.445 68.396,15.123 69.863,16.477C71.33,17.831 72.008,19.637 72.008,21.894L72.008,32.729L68.847,32.729L68.847,30.246L68.735,30.246C67.38,32.277 65.462,33.293 63.204,33.293C61.286,33.293 59.593,32.729 58.239,31.6C56.997,30.472 56.207,28.892 56.207,27.199C56.207,25.393 56.884,23.926 58.239,22.797C59.593,21.668 61.512,21.217 63.769,21.217C65.8,21.217 67.38,21.555 68.622,22.346L68.622,21.555C68.622,20.427 68.17,19.298 67.267,18.621C66.365,17.831 65.236,17.38 63.994,17.38C62.076,17.38 60.609,18.17 59.593,19.75L56.658,17.944C58.464,15.574 60.834,14.445 63.994,14.445ZM59.706,27.312C59.706,28.214 60.157,29.004 60.834,29.456C61.624,30.02 62.527,30.359 63.43,30.359C64.784,30.359 66.139,29.794 67.155,28.779C68.283,27.763 68.847,26.521 68.847,25.167C67.832,24.377 66.365,23.926 64.446,23.926C63.092,23.926 61.963,24.264 61.06,24.941C60.157,25.506 59.706,26.296 59.706,27.312Z" style="fill:white;fill-rule:nonzero;"/>
        <path d="M90.29,15.012L79.116,40.631L75.73,40.631L79.906,31.715L72.57,15.125L76.182,15.125L81.486,27.878L81.599,27.878L86.791,15.125L90.29,15.125L90.29,15.012Z" style="fill:white;fill-rule:nonzero;"/>
        <path d="M29.232,19.977C29.232,18.961 29.119,17.945 29.006,16.93L14.898,16.93L14.898,22.686L22.912,22.686C22.573,24.491 21.557,26.184 19.977,27.2L19.977,30.924L24.83,30.924C27.652,28.329 29.232,24.491 29.232,19.977Z" style="fill:rgb(66,133,244);fill-rule:nonzero;"/>
        <path d="M14.9,34.533C18.963,34.533 22.348,33.179 24.831,30.922L19.978,27.197C18.624,28.1 16.931,28.664 14.9,28.664C11.062,28.664 7.677,26.069 6.548,22.457L1.582,22.457L1.582,26.294C4.178,31.373 9.257,34.533 14.9,34.533Z" style="fill:rgb(52,168,83);fill-rule:nonzero;"/>
        <path d="M6.547,22.456C5.87,20.651 5.87,18.619 6.547,16.701L6.547,12.863L1.581,12.863C-0.563,17.039 -0.563,22.005 1.581,26.294L6.547,22.456Z" style="fill:rgb(251,188,4);fill-rule:nonzero;"/>
        <path d="M14.9,10.609C17.044,10.609 19.076,11.399 20.656,12.866L24.945,8.578C22.236,6.095 18.624,4.628 15.013,4.74C9.37,4.74 4.178,7.901 1.695,12.979L6.661,16.817C7.677,13.205 11.063,10.609 14.9,10.609Z" style="fill:rgb(234,67,53);fill-rule:nonzero;"/>
    </g>
</svg>
