<svg width="74" height="49" viewBox="0 0 74 49" fill="none" xmlns="http://www.w3.org/2000/svg">
<g clip-path="url(#clip0_633_4135)">
<path d="M46.4475 8.46875H27.0586V40.1366H46.4475V8.46875Z" fill="#FF5F00"/>
<path d="M29.0545 24.3076C29.0521 21.2583 29.7434 18.2484 31.076 15.5056C32.4086 12.7629 34.3476 10.3592 36.7463 8.47649C33.7754 6.14167 30.2076 4.68978 26.4505 4.28676C22.6935 3.88374 18.8988 4.54586 15.5003 6.19744C12.1017 7.84902 9.23641 10.4234 7.23177 13.6264C5.22713 16.8294 4.16406 20.5318 4.16406 24.3104C4.16406 28.089 5.22713 31.7914 7.23177 34.9944C9.23641 38.1974 12.1017 40.7718 15.5003 42.4234C18.8988 44.075 22.6935 44.7371 26.4505 44.3341C30.2076 43.931 33.7754 42.4791 36.7463 40.1443C34.3469 38.261 32.4074 35.8565 31.0748 33.1127C29.7421 30.3689 29.0513 27.3579 29.0545 24.3076V24.3076Z" fill="#EB001B"/>
<path d="M67.4094 36.7871V36.1382H67.6891V36.0039H67.0234V36.1382H67.2864V36.7871H67.4094ZM68.7016 36.7871V36.0039H68.5003L68.2653 36.5633L68.0304 36.0039H67.829V36.7871H67.9744V36.1941L68.1926 36.7032H68.3436L68.5618 36.1941V36.7871H68.7016Z" fill="#F79E1B"/>
<path d="M69.3313 24.3077C69.3313 28.0866 68.2679 31.7892 66.2629 34.9923C64.258 38.1954 61.3922 40.7698 57.9932 42.4211C54.5942 44.0725 50.7992 44.7342 47.042 44.3306C43.2847 43.927 39.7168 42.4744 36.7461 40.1388C39.1439 38.2544 41.0823 35.8501 42.4153 33.1072C43.7482 30.3643 44.4408 27.3545 44.4408 24.3049C44.4408 21.2553 43.7482 18.2455 42.4153 15.5026C41.0823 12.7597 39.1439 10.3554 36.7461 8.47101C39.7168 6.13545 43.2847 4.68286 47.042 4.27926C50.7992 3.87567 54.5942 4.53736 57.9932 6.1887C61.3922 7.84005 64.258 10.4144 66.2629 13.6175C68.2679 16.8206 69.3313 20.5232 69.3313 24.3021V24.3077Z" fill="#F79E1B"/>
</g>
<defs>
<clipPath id="clip0_633_4135">
<rect width="73.5" height="48.6122" fill="white"/>
</clipPath>
</defs>
</svg>
