<svg width="88" height="29" viewBox="0 0 88 29" fill="none" xmlns="http://www.w3.org/2000/svg">
<path fill-rule="evenodd" clip-rule="evenodd" d="M45.5072 9.08406C45.457 13.0422 49.0348 15.251 51.7297 16.5642C54.4988 17.9118 55.4289 18.7759 55.4184 19.9807C55.3972 21.8251 53.2093 22.6388 51.1618 22.6704C47.5893 22.7259 45.5125 21.706 43.8611 20.9346L42.5744 26.9561C44.2311 27.7199 47.2987 28.3857 50.48 28.4148C57.947 28.4148 62.8323 24.7288 62.8589 19.0137C62.888 11.7608 52.8263 11.3591 52.895 8.11703C52.9187 7.13416 53.8567 6.08508 55.9124 5.81824C56.9296 5.68361 59.7383 5.58044 62.9223 7.04683L64.172 1.22089C62.4599 0.597245 60.2588 0 57.5189 0C50.4906 0 45.547 3.73614 45.5072 9.08406ZM76.1811 0.501996C74.8177 0.501996 73.6683 1.29744 73.1558 2.51811L62.4889 27.9867H69.9506L71.4355 23.8832H80.5539L81.4153 27.9867H87.9918L82.2528 0.501996H76.1811ZM77.2247 7.92675L79.3781 18.2473H73.4807L77.2247 7.92675ZM36.4603 0.501996L30.5787 27.9867H37.6889L43.5678 0.501996H36.4603ZM25.9415 0.501996L18.5405 19.2091L15.5468 3.30278C15.1955 1.52732 13.8083 0.501996 12.2678 0.501996H0.169164L0 1.30008C2.48379 1.83903 5.30569 2.70839 7.01515 3.63846C8.06137 4.20645 8.3601 4.70316 8.70349 6.0534L14.3737 27.9867H21.8884L33.4085 0.501996H25.9415Z" fill="#1C33C3"/>
</svg>
